<svg xmlns="http://www.w3.org/2000/svg" viewBox="0 0 512 512">
  <!-- Primary Color Background Circle -->
  <circle cx="256" cy="256" r="240" fill="#1976d2"/>
  
  <!-- White Cross (Medical Symbol) -->
  <path fill="#ffffff" d="M368 224H288V144C288 126.3 273.7 112 256 112C238.3 112 224 126.3 224 144V224H144C126.3 224 112 238.3 112 256C112 273.7 126.3 288 144 288H224V368C224 385.7 238.3 400 256 400C273.7 400 288 385.7 288 368V288H368C385.7 288 400 273.7 400 256C400 238.3 385.7 224 368 224Z"/>
  
  <!-- Subtle Bone/Joint curve suggestion (Optional simplified styling) -->
  <path fill="none" stroke="#ffffff" stroke-width="20" stroke-linecap="round" d="M180 160C180 160 210 130 256 130C302 130 332 160 332 160" opacity="0.3"/>
</svg>
